# Blender 3.3.1
# www.blender.org
mtllib cube.mtl
o Cube
v 1.000000 1.000000 -1.000000
v 1.000000 -1.000000 -1.000000
v 1.000000 1.000000 1.000000
v 1.000000 -1.000000 1.000000
v -1.000000 1.000000 -1.000000
v -1.000000 -1.000000 -1.000000
v -1.000000 1.000000 1.000000
v -1.000000 -1.000000 1.000000
vn -0.5774 0.5774 0.5774
vn 0.5774 0.5774 0.5774
vn -0.5774 0.5774 -0.5774
vn 0.5774 0.5774 -0.5774
vn 0.5774 -0.5774 0.5774
vn 0.5774 -0.5774 -0.5774
vn -0.5774 -0.5774 -0.5774
vn -0.5774 -0.5774 0.5774
vt 0.000000 0.000000
vt 0.000000 0.000000
vt 0.000000 0.000000
vt 0.000000 0.000000
vt 0.000000 0.000000
vt 0.000000 0.000000
vt 0.000000 0.000000
vt 0.000000 0.000000
s 1
usemtl Material.002
f 7/7/1 3/3/2 5/5/3
f 1/1/4 5/5/3 3/3/2
f 3/3/2 4/4/5 1/1/4
f 2/2/6 1/1/4 4/4/5
f 6/6/7 4/4/5 8/8/8
f 2/2/6 4/4/5 6/6/7
f 4/4/5 3/3/2 7/7/1
f 7/7/1 8/8/8 4/4/5
f 8/8/8 7/7/1 6/6/7
f 5/5/3 6/6/7 7/7/1
f 6/6/7 5/5/3 1/1/4
f 2/2/6 6/6/7 1/1/4
